<mxfile host="drawio-plugin" modified="2022-01-17T10:43:23.750Z" agent="5.0 (Windows NT 6.2; Win64; x64) AppleWebKit/537.36 (KHTML, like Gecko) Chrome/89.0.4389.114 Safari/537.36" etag="eCckGSJIwwR_37d0ZMk1" version="15.5.4" type="embed" pages="2"><diagram id="23iRSUPoRavnBvh4doch" name="Rechercher une ressource"><mxGraphModel dx="885" dy="395" grid="1" gridSize="10" guides="1" tooltips="1" connect="1" arrows="1" fold="1" page="1" pageScale="1" pageWidth="827" pageHeight="1169" math="0" shadow="0"><root><mxCell id="0"/><mxCell id="1" parent="0"/><mxCell id="2" value="" style="strokeWidth=1;shadow=0;dashed=0;align=center;html=1;shape=mxgraph.mockup.containers.browserWindow;rSize=0;strokeColor=#666666;strokeColor2=#008cff;strokeColor3=#c4c4c4;mainText=,;recursiveResize=0;" vertex="1" parent="1"><mxGeometry y="20" width="820" height="480" as="geometry"/></mxCell><mxCell id="3" value="Chercher une ressource" style="strokeWidth=1;shadow=0;dashed=0;align=center;html=1;shape=mxgraph.mockup.containers.anchor;fontSize=17;fontColor=#666666;align=left;" vertex="1" parent="2"><mxGeometry x="60" y="12" width="110" height="26" as="geometry"/></mxCell><mxCell id="4" value="https://www.draw.io" style="strokeWidth=1;shadow=0;dashed=0;align=center;html=1;shape=mxgraph.mockup.containers.anchor;rSize=0;fontSize=17;fontColor=#666666;align=left;" vertex="1" parent="2"><mxGeometry x="130" y="60" width="250" height="26" as="geometry"/></mxCell><mxCell id="9" value="&lt;a href=&quot;data:page/id,xrUA95H6zkeY6qnitXHd&quot;&gt;Chercher&lt;/a&gt;" style="html=1;shadow=0;dashed=0;shape=mxgraph.bootstrap.rrect;rSize=5;strokeColor=none;strokeWidth=1;fillColor=#33A64C;fontColor=#FFFFFF;whiteSpace=wrap;align=center;verticalAlign=middle;spacingLeft=0;fontStyle=0;fontSize=16;spacing=5;" vertex="1" parent="2"><mxGeometry x="280" y="380" width="170" height="40" as="geometry"/></mxCell><mxCell id="5" value="&lt;font style=&quot;font-size: 14px&quot;&gt;Type ressource&lt;/font&gt;" style="html=1;shadow=0;dashed=0;shape=mxgraph.bootstrap.rrect;rSize=5;strokeColor=#505050;strokeWidth=1;fillColor=#ffffff;fontColor=#777777;whiteSpace=wrap;align=left;verticalAlign=middle;fontStyle=0;fontSize=18;spacing=20;" vertex="1" parent="1"><mxGeometry x="12" y="303" width="800" height="40" as="geometry"/></mxCell><mxCell id="6" value="" style="shape=triangle;direction=south;fillColor=#495057;strokeColor=none;perimeter=none;" vertex="1" parent="5"><mxGeometry x="1" y="0.5" width="10" height="5" relative="1" as="geometry"><mxPoint x="-17" y="-2.5" as="offset"/></mxGeometry></mxCell><mxCell id="7" value="Titre" style="html=1;shadow=0;dashed=0;shape=mxgraph.bootstrap.rrect;rSize=5;strokeColor=#CED4DA;html=1;whiteSpace=wrap;fillColor=#FFFFFF;fontColor=#7D868C;align=left;spacingLeft=0;spacing=15;fontSize=14;" vertex="1" parent="1"><mxGeometry x="13" y="189" width="800" height="40" as="geometry"/></mxCell><mxCell id="8" value="Auteur" style="html=1;shadow=0;dashed=0;shape=mxgraph.bootstrap.rrect;rSize=5;strokeColor=#CED4DA;html=1;whiteSpace=wrap;fillColor=#FFFFFF;fontColor=#7D868C;align=left;spacingLeft=0;spacing=15;fontSize=14;" vertex="1" parent="1"><mxGeometry x="12" y="247" width="800" height="40" as="geometry"/></mxCell><mxCell id="10" value="" style="html=1;verticalLabelPosition=bottom;align=center;labelBackgroundColor=#ffffff;verticalAlign=top;strokeWidth=2;strokeColor=#FFFFFF;shadow=0;dashed=0;shape=mxgraph.ios7.icons.looking_glass;fillColor=#33A64C;" vertex="1" parent="1"><mxGeometry x="414" y="413" width="26" height="23" as="geometry"/></mxCell></root></mxGraphModel></diagram><diagram id="xrUA95H6zkeY6qnitXHd" name="resultat recherche"><mxGraphModel dx="1735" dy="395" grid="1" gridSize="10" guides="1" tooltips="1" connect="1" arrows="1" fold="1" page="1" pageScale="1" pageWidth="850" pageHeight="1100" math="0" shadow="0"><root><mxCell id="VHx6fUYtHQDNfWX9DyeS-0"/><mxCell id="VHx6fUYtHQDNfWX9DyeS-1" parent="VHx6fUYtHQDNfWX9DyeS-0"/><mxCell id="G-gR1qFNcgdJfKs2-GPe-0" value="" style="strokeWidth=1;shadow=0;dashed=0;align=center;html=1;shape=mxgraph.mockup.containers.browserWindow;rSize=0;strokeColor=#666666;strokeColor2=#008cff;strokeColor3=#c4c4c4;mainText=,;recursiveResize=0;" vertex="1" parent="VHx6fUYtHQDNfWX9DyeS-1"><mxGeometry x="-850" width="860" height="950" as="geometry"/></mxCell><mxCell id="G-gR1qFNcgdJfKs2-GPe-1" value="resultat&amp;nbsp;" style="strokeWidth=1;shadow=0;dashed=0;align=center;html=1;shape=mxgraph.mockup.containers.anchor;fontSize=17;fontColor=#666666;align=left;" vertex="1" parent="G-gR1qFNcgdJfKs2-GPe-0"><mxGeometry x="60" y="12" width="110" height="26" as="geometry"/></mxCell><mxCell id="G-gR1qFNcgdJfKs2-GPe-2" value="https://www.draw.io" style="strokeWidth=1;shadow=0;dashed=0;align=center;html=1;shape=mxgraph.mockup.containers.anchor;rSize=0;fontSize=17;fontColor=#666666;align=left;" vertex="1" parent="G-gR1qFNcgdJfKs2-GPe-0"><mxGeometry x="130" y="60" width="250" height="26" as="geometry"/></mxCell><mxCell id="G-gR1qFNcgdJfKs2-GPe-10" value="" style="html=1;shadow=0;dashed=0;shape=mxgraph.bootstrap.rrect;rSize=5;strokeColor=#DEE2E6;html=1;whiteSpace=wrap;fillColor=#ffffff;fontColor=#0085FC;fontSize=14;" vertex="1" parent="G-gR1qFNcgdJfKs2-GPe-0"><mxGeometry x="305" y="900" width="220" height="30" as="geometry"/></mxCell><mxCell id="G-gR1qFNcgdJfKs2-GPe-11" value="Previous" style="strokeColor=inherit;fillColor=inherit;gradientColor=inherit;html=1;shadow=0;dashed=0;shape=mxgraph.bootstrap.leftButton;rSize=5;perimeter=none;whiteSpace=wrap;resizeHeight=1;fontColor=#6C767D;fontSize=14;" vertex="1" parent="G-gR1qFNcgdJfKs2-GPe-10"><mxGeometry width="70" height="30" relative="1" as="geometry"/></mxCell><mxCell id="G-gR1qFNcgdJfKs2-GPe-12" value="1" style="strokeColor=inherit;fillColor=inherit;gradientColor=inherit;fontColor=inherit;html=1;shadow=0;dashed=0;perimeter=none;whiteSpace=wrap;resizeHeight=1;fontSize=14;" vertex="1" parent="G-gR1qFNcgdJfKs2-GPe-10"><mxGeometry width="30" height="30" relative="1" as="geometry"><mxPoint x="70" as="offset"/></mxGeometry></mxCell><mxCell id="G-gR1qFNcgdJfKs2-GPe-13" value="2" style="html=1;shadow=0;dashed=0;perimeter=none;whiteSpace=wrap;resizeHeight=1;fillColor=#0085FC;strokeColor=none;fontColor=#ffffff;fontSize=14;" vertex="1" parent="G-gR1qFNcgdJfKs2-GPe-10"><mxGeometry width="30" height="30" relative="1" as="geometry"><mxPoint x="100" as="offset"/></mxGeometry></mxCell><mxCell id="G-gR1qFNcgdJfKs2-GPe-14" value="3" style="strokeColor=inherit;fillColor=inherit;gradientColor=inherit;fontColor=inherit;html=1;shadow=0;dashed=0;perimeter=none;whiteSpace=wrap;resizeHeight=1;fontSize=14;" vertex="1" parent="G-gR1qFNcgdJfKs2-GPe-10"><mxGeometry width="30" height="30" relative="1" as="geometry"><mxPoint x="130" as="offset"/></mxGeometry></mxCell><mxCell id="G-gR1qFNcgdJfKs2-GPe-15" value="Next" style="strokeColor=inherit;fillColor=inherit;gradientColor=inherit;fontColor=inherit;html=1;shadow=0;dashed=0;shape=mxgraph.bootstrap.rightButton;rSize=5;perimeter=none;whiteSpace=wrap;resizeHeight=1;fontSize=14;" vertex="1" parent="G-gR1qFNcgdJfKs2-GPe-10"><mxGeometry x="1" width="60" height="30" relative="1" as="geometry"><mxPoint x="-60" as="offset"/></mxGeometry></mxCell><mxCell id="VGRYmz6oJjCHkxrt5TZA-0" value="&lt;font style=&quot;font-size: 14px&quot;&gt;Trier par&lt;/font&gt;" style="html=1;shadow=0;dashed=0;shape=mxgraph.bootstrap.rrect;rSize=5;strokeColor=#505050;strokeWidth=1;fillColor=#ffffff;fontColor=#777777;whiteSpace=wrap;align=left;verticalAlign=middle;fontStyle=0;fontSize=18;spacing=20;" vertex="1" parent="G-gR1qFNcgdJfKs2-GPe-0"><mxGeometry x="80" y="160" width="230" height="44" as="geometry"/></mxCell><mxCell id="VGRYmz6oJjCHkxrt5TZA-1" value="" style="shape=triangle;direction=south;fillColor=#495057;strokeColor=none;perimeter=none;" vertex="1" parent="VGRYmz6oJjCHkxrt5TZA-0"><mxGeometry x="1" y="0.5" width="10" height="5" relative="1" as="geometry"><mxPoint x="-17" y="-2.5" as="offset"/></mxGeometry></mxCell><mxCell id="G-gR1qFNcgdJfKs2-GPe-4" value="&lt;b&gt;&lt;font style=&quot;font-size: 20px&quot;&gt;Card title&lt;/font&gt;&lt;/b&gt;&lt;br&gt;&lt;br&gt;This is a wider card with supporting text below as a natural lead-in to additional content. This content is a little bit longer.&lt;br&gt;&lt;br&gt;Auteur : loremp&amp;nbsp; &amp;nbsp; &amp;nbsp; emplacement :&amp;nbsp; 1&amp;nbsp; Etat : &lt;font color=&quot;#66ff66&quot;&gt;Disponible&lt;/font&gt;" style="html=1;shadow=0;dashed=0;shape=mxgraph.bootstrap.rrect;rSize=5;strokeColor=#DFDFDF;html=1;whiteSpace=wrap;fillColor=#ffffff;fontColor=#000000;verticalAlign=top;align=left;spacing=20;fontSize=14;spacingLeft=170;" vertex="1" parent="G-gR1qFNcgdJfKs2-GPe-0"><mxGeometry x="70" y="250" width="690" height="132" as="geometry"/></mxCell><mxCell id="G-gR1qFNcgdJfKs2-GPe-5" value="Image" style="html=1;shadow=0;dashed=0;shape=mxgraph.bootstrap.leftButton;rSize=5;perimeter=none;whiteSpace=wrap;fillColor=#868E96;strokeColor=#DFDFDF;fontColor=#DEE2E6;resizeWidth=1;fontSize=18;" vertex="1" parent="G-gR1qFNcgdJfKs2-GPe-4"><mxGeometry width="130" height="130" relative="1" as="geometry"/></mxCell><mxCell id="VGRYmz6oJjCHkxrt5TZA-19" value="&lt;b&gt;&lt;font style=&quot;font-size: 20px&quot;&gt;Card title&lt;/font&gt;&lt;/b&gt;&lt;br&gt;&lt;br&gt;This is a wider card with supporting text below as a natural lead-in to additional content. This content is a little bit longer.&lt;br&gt;&lt;br&gt;Auteur : loremp&amp;nbsp; &amp;nbsp; &amp;nbsp; emplacement :&amp;nbsp; 4&amp;nbsp; Etat : &lt;font color=&quot;#ff3333&quot;&gt;Non disponible&lt;/font&gt;" style="html=1;shadow=0;dashed=0;shape=mxgraph.bootstrap.rrect;rSize=5;strokeColor=#DFDFDF;html=1;whiteSpace=wrap;fillColor=#ffffff;fontColor=#000000;verticalAlign=top;align=left;spacing=20;fontSize=14;spacingLeft=170;" vertex="1" parent="G-gR1qFNcgdJfKs2-GPe-0"><mxGeometry x="70" y="560" width="690" height="132" as="geometry"/></mxCell><mxCell id="VGRYmz6oJjCHkxrt5TZA-20" value="Image" style="html=1;shadow=0;dashed=0;shape=mxgraph.bootstrap.leftButton;rSize=5;perimeter=none;whiteSpace=wrap;fillColor=#868E96;strokeColor=#DFDFDF;fontColor=#DEE2E6;resizeWidth=1;fontSize=18;" vertex="1" parent="VGRYmz6oJjCHkxrt5TZA-19"><mxGeometry width="130" height="130" relative="1" as="geometry"/></mxCell><mxCell id="VGRYmz6oJjCHkxrt5TZA-22" value="&lt;b&gt;&lt;font style=&quot;font-size: 20px&quot;&gt;Card title&lt;/font&gt;&lt;/b&gt;&lt;br&gt;&lt;br&gt;This is a wider card with supporting text below as a natural lead-in to additional content. This content is a little bit longer.&lt;br&gt;&lt;br&gt;Auteur : loremp&amp;nbsp; &amp;nbsp; &amp;nbsp; emplacement :&amp;nbsp; 8&amp;nbsp; Etat : &lt;font color=&quot;#66ff66&quot;&gt;Disponible&lt;/font&gt;" style="html=1;shadow=0;dashed=0;shape=mxgraph.bootstrap.rrect;rSize=5;strokeColor=#DFDFDF;html=1;whiteSpace=wrap;fillColor=#ffffff;fontColor=#000000;verticalAlign=top;align=left;spacing=20;fontSize=14;spacingLeft=170;" vertex="1" parent="G-gR1qFNcgdJfKs2-GPe-0"><mxGeometry x="70" y="710" width="690" height="132" as="geometry"/></mxCell><mxCell id="VGRYmz6oJjCHkxrt5TZA-23" value="Image" style="html=1;shadow=0;dashed=0;shape=mxgraph.bootstrap.leftButton;rSize=5;perimeter=none;whiteSpace=wrap;fillColor=#868E96;strokeColor=#DFDFDF;fontColor=#DEE2E6;resizeWidth=1;fontSize=18;" vertex="1" parent="VGRYmz6oJjCHkxrt5TZA-22"><mxGeometry width="130" height="130" relative="1" as="geometry"/></mxCell><mxCell id="VGRYmz6oJjCHkxrt5TZA-17" value="&lt;b&gt;&lt;font style=&quot;font-size: 20px&quot;&gt;Card title&lt;/font&gt;&lt;/b&gt;&lt;br&gt;&lt;br&gt;This is a wider card with supporting text below as a natural lead-in to additional content. This content is a little bit longer.&lt;br&gt;&lt;br&gt;Auteur : loremp&amp;nbsp; &amp;nbsp; &amp;nbsp; emplacement :&amp;nbsp; 2&amp;nbsp; Etat : &lt;font color=&quot;#ff3333&quot;&gt;Perdu&lt;/font&gt;" style="html=1;shadow=0;dashed=0;shape=mxgraph.bootstrap.rrect;rSize=5;strokeColor=#DFDFDF;html=1;whiteSpace=wrap;fillColor=#ffffff;fontColor=#000000;verticalAlign=top;align=left;spacing=20;fontSize=14;spacingLeft=170;" vertex="1" parent="VHx6fUYtHQDNfWX9DyeS-1"><mxGeometry x="-780" y="405" width="690" height="132" as="geometry"/></mxCell><mxCell id="VGRYmz6oJjCHkxrt5TZA-18" value="Image" style="html=1;shadow=0;dashed=0;shape=mxgraph.bootstrap.leftButton;rSize=5;perimeter=none;whiteSpace=wrap;fillColor=#868E96;strokeColor=#DFDFDF;fontColor=#DEE2E6;resizeWidth=1;fontSize=18;" vertex="1" parent="VGRYmz6oJjCHkxrt5TZA-17"><mxGeometry width="130" height="130" relative="1" as="geometry"/></mxCell></root></mxGraphModel></diagram></mxfile>